<svg width="142" height="71" viewBox="0 0 142 71" fill="none" xmlns="http://www.w3.org/2000/svg">
<path d="M16.4568 21.7191C16.6944 20.8906 16.9518 19.9611 17.2291 18.9305C17.5064 17.9 17.8034 16.8593 18.1203 15.8085C18.4371 14.7577 18.7738 13.7373 19.1303 12.7471C19.4867 11.7569 19.863 10.8779 20.2591 10.1101C20.3779 9.88772 20.5463 9.74125 20.7641 9.67059C20.9819 9.59981 21.2096 9.56448 21.4473 9.56448C21.5265 9.56448 21.6849 9.60483 21.9226 9.68575C22.1602 9.76656 22.4078 9.86252 22.6652 9.97365C22.9226 10.0848 23.1554 10.201 23.3633 10.3222C23.5712 10.4434 23.6752 10.5546 23.6752 10.6557L23.6455 10.8678C22.3781 13.6362 21.3582 16.1066 20.5858 18.2788C19.8135 20.4512 19.264 22.2849 18.9371 23.7802C18.6104 25.2756 18.4916 26.4122 18.5807 27.1902C18.6699 27.9682 18.9223 28.3572 19.3382 28.3572C19.8729 28.3572 20.5165 27.7308 21.269 26.478C22.0216 25.2251 22.8979 23.457 23.898 21.1735C24.8981 18.8901 26.0318 16.1469 27.2992 12.9442C28.5667 9.74126 29.9827 6.17969 31.5471 2.25956C31.6462 2.01702 31.7996 1.86543 32.0075 1.80491C32.2155 1.74427 32.4581 1.71396 32.7353 1.71396C32.8145 1.71396 33.0076 1.76947 33.3146 1.8806C33.6215 1.99183 33.9384 2.13327 34.2651 2.30503C34.592 2.47679 34.884 2.65356 35.1415 2.83546C35.399 3.01725 35.5276 3.16884 35.5276 3.29011L35.4979 3.44169C34.8444 4.87639 34.1216 6.53335 33.3294 8.41266C32.5373 10.2919 31.7006 12.2217 30.8194 14.202C29.9381 16.1824 29.037 18.1172 28.1162 20.0065C27.1953 21.8959 26.2695 23.5681 25.3387 25.023C24.9822 25.5686 24.5961 26.1142 24.1802 26.6598C23.7643 27.2054 23.3089 27.6955 22.8137 28.1299C22.3187 28.5644 21.7641 28.9179 21.1502 29.1908C20.5363 29.4635 19.863 29.6 19.1303 29.6C18.5362 29.6 18.0212 29.4888 17.5856 29.2666C17.1499 29.0442 16.7884 28.7462 16.5014 28.3724C16.2142 27.9985 15.9964 27.564 15.8478 27.069C15.6993 26.5739 15.625 26.0536 15.625 25.508C15.3082 25.9324 14.9765 26.387 14.6299 26.872C14.2833 27.357 13.9071 27.8066 13.5011 28.2208C13.0952 28.6351 12.6495 28.9786 12.1644 29.2514C11.6792 29.5242 11.1395 29.6606 10.5454 29.6606C10.0701 29.6606 9.60965 29.5696 9.16409 29.3877C8.71853 29.2059 8.33731 28.9584 8.02042 28.6452C7.70354 28.332 7.46093 27.9632 7.2926 27.5389C7.12428 27.1144 7.07971 26.6598 7.15901 26.1748C7.35705 24.9422 7.71839 23.5277 8.24326 21.9313C8.76801 20.3349 9.34727 18.6931 9.98104 17.0057C10.6147 15.3185 11.2434 13.6665 11.8673 12.0499C12.4911 10.4334 13.001 8.98857 13.3971 7.71549C13.7932 6.4424 14.0209 5.41686 14.0803 4.63898C14.1398 3.861 13.9219 3.47201 13.4268 3.47201C12.5159 3.47201 11.6198 3.75489 10.7385 4.32066C9.85717 4.88643 9.01061 5.62406 8.19869 6.53335C7.38676 7.44274 6.62923 8.46316 5.92621 9.5948C5.22319 10.7263 4.59444 11.853 4.03987 12.9745C3.4854 14.096 3.0299 15.1568 2.67347 16.1571C2.31694 17.1573 2.08427 17.9858 1.97537 18.6426C1.86646 19.2993 1.89126 19.7186 2.04965 19.9004C2.20803 20.0823 2.53486 19.9156 3.0299 19.4003C3.52505 18.885 4.19836 17.9656 5.04983 16.642C5.90141 15.3185 6.96097 13.4746 8.2284 11.1103C8.36702 10.8678 8.54026 10.7163 8.74824 10.6557C8.95611 10.595 9.17894 10.5647 9.41663 10.5647C9.49582 10.5647 9.62451 10.6052 9.80277 10.686C9.98104 10.7668 10.1592 10.8678 10.3375 10.989C10.5157 11.1103 10.6692 11.2416 10.7979 11.3831C10.9266 11.5246 10.991 11.6559 10.991 11.7772C10.991 12.1207 10.8573 12.5905 10.5899 13.1866C10.3226 13.7828 9.96618 14.4344 9.52052 15.1417C9.07495 15.8489 8.56997 16.5714 8.00556 17.3089C7.44116 18.0464 6.8619 18.7133 6.26778 19.3094C5.67366 19.9056 5.08948 20.3905 4.51514 20.7644C3.9409 21.1382 3.42598 21.3251 2.97048 21.3251C2.01993 21.3251 1.2872 21.0321 0.772277 20.446C0.257462 19.8601 0 19.1023 0 18.1727C0 17.3442 0.19804 16.3743 0.594118 15.263C0.990196 14.1515 1.51495 12.9997 2.16849 11.8075C2.82203 10.6152 3.58437 9.4382 4.45583 8.27624C5.32718 7.11428 6.23807 6.05853 7.18872 5.10878C8.13926 4.15904 9.09472 3.36589 10.0552 2.72935C11.0157 2.0928 11.9316 1.71396 12.803 1.59269C13.7337 1.45125 14.5407 1.50676 15.224 1.75943C15.9072 2.012 16.4617 2.37569 16.8875 2.85062C17.3133 3.32543 17.6005 3.88117 17.7489 4.51771C17.8975 5.15426 17.9123 5.79582 17.7935 6.4424C17.6153 7.33151 17.2935 8.4733 16.8281 9.86754C16.3627 11.2619 15.8379 12.7471 15.2537 14.3232C14.6695 15.8994 14.0803 17.4807 13.4862 19.0669C12.8921 20.6532 12.3822 22.093 11.9564 23.3862C11.5306 24.6795 11.2336 25.7353 11.0653 26.5537C10.897 27.3721 10.9514 27.7914 11.2286 27.8116C11.5058 27.8319 12.0604 27.3771 12.8921 26.4477C13.7239 25.5181 14.9121 23.9419 16.4568 21.7191ZM46.3405 20.2642C46.3405 20.2642 46.484 20.2389 46.7712 20.1885C47.0584 20.138 47.4197 20.0167 47.8554 19.8246C48.2911 19.6327 48.7714 19.3297 49.2961 18.9154C49.821 18.5011 50.3309 17.9303 50.8259 17.2028H51.7766C51.4993 17.8495 51.123 18.4354 50.6478 18.9608C50.1725 19.4863 49.6526 19.9459 49.0882 20.34C48.5238 20.734 47.9544 21.0422 47.3802 21.2645C46.8058 21.4867 46.2811 21.608 45.8058 21.6282C45.2711 22.4769 44.7116 23.1589 44.1274 23.6742C43.5431 24.1895 42.9541 24.5734 42.3599 24.826C41.7658 25.0786 41.1816 25.2099 40.6073 25.2201C40.033 25.2301 39.4983 25.1644 39.0032 25.023C37.8744 24.6996 37.0476 24.0935 36.5228 23.2043C35.998 22.3152 35.7356 21.3048 35.7356 20.1733C35.7356 19.4054 35.8346 18.592 36.0326 17.7332C36.2307 16.8744 36.5228 16.0409 36.909 15.2326C37.2951 14.4243 37.7655 13.6715 38.32 12.9745C38.8745 12.2773 39.4983 11.6862 40.1914 11.2013C40.8845 10.7163 41.647 10.3778 42.4788 10.1859C43.3105 9.99382 44.2017 10.009 45.1523 10.2313C45.9245 10.4131 46.5187 10.7213 46.9346 11.1558C47.3505 11.5903 47.6376 12.0954 47.796 12.6713C47.9544 13.2472 48.0089 13.8787 47.9594 14.5658C47.9098 15.2528 47.796 15.9398 47.6178 16.6269C47.4396 17.3139 47.2316 17.9758 46.9939 18.6123C46.7563 19.2487 46.5385 19.7995 46.3405 20.2642ZM41.6173 13.6261C41.5777 13.5857 41.4292 13.7423 41.1717 14.096C40.9142 14.4495 40.6271 14.9194 40.3103 15.5054C39.9934 16.0914 39.6814 16.7532 39.3745 17.4908C39.0676 18.2283 38.83 18.9608 38.6616 19.6883C38.4933 20.4157 38.4289 21.0877 38.4685 21.704C38.5082 22.3203 38.7358 22.8002 39.1518 23.1438C39.5082 23.4469 39.8696 23.5428 40.236 23.4317C40.6024 23.3206 40.9539 23.1083 41.2906 22.7951C41.6272 22.4819 41.9341 22.1131 42.2114 21.6888C42.4886 21.2645 42.7065 20.8906 42.8649 20.5673C42.5283 20.5471 42.2065 20.34 41.8995 19.9459C41.5926 19.5519 41.3598 19.0366 41.2014 18.4001C41.043 17.7635 40.9836 17.031 41.0231 16.2026C41.0628 15.3741 41.2608 14.5153 41.6173 13.6261ZM43.4293 19.1427C43.6868 18.496 43.9442 17.7737 44.2017 16.9755C44.4591 16.1773 44.6473 15.4296 44.7661 14.7325C44.8849 14.0353 44.9196 13.4493 44.87 12.9745C44.8205 12.4995 44.6373 12.2621 44.3204 12.2621C43.9838 12.2621 43.6966 12.4339 43.459 12.7774C43.2213 13.1209 43.0332 13.5453 42.8946 14.0505C42.756 14.5556 42.662 15.1063 42.6124 15.7024C42.5629 16.2985 42.558 16.8491 42.5975 17.3544C42.6372 17.8595 42.7263 18.2839 42.8649 18.6275C43.0035 18.971 43.1916 19.1427 43.4293 19.1427ZM66.154 18.0515C65.5995 19.2842 64.9955 20.3854 64.3419 21.3554C64.0647 21.7596 63.7529 22.1586 63.4063 22.5527C63.0597 22.9467 62.6884 23.2953 62.2923 23.5984C61.8962 23.9015 61.4804 24.149 61.0447 24.341C60.609 24.533 60.1535 24.629 59.6782 24.629C59.2425 24.629 58.8415 24.5785 58.4752 24.4774C58.1088 24.3764 57.7919 24.2198 57.5246 24.0076C57.2572 23.7954 57.0493 23.5226 56.9008 23.1892C56.7522 22.8558 56.6978 22.4566 56.7374 21.992C56.777 21.2443 56.9403 20.4208 57.2275 19.5216C57.5147 18.6223 57.8316 17.7484 58.1782 16.8997C58.5246 16.051 58.8415 15.263 59.1287 14.5355C59.4159 13.808 59.5693 13.222 59.5891 12.7774C59.6288 12.252 59.4208 11.9893 58.9653 11.9893C58.49 11.9893 58.0445 12.1207 57.6286 12.3834C57.2126 12.6461 56.8314 12.9795 56.4849 13.3836C56.1383 13.7878 55.8314 14.2374 55.564 14.7325C55.2967 15.2275 55.0739 15.7176 54.8957 16.2026C54.5986 17.0109 54.3313 17.7484 54.0936 18.4152C53.8559 19.0821 53.6332 19.7186 53.4252 20.3249C53.2173 20.931 52.9994 21.5272 52.7717 22.1131C52.5439 22.6992 52.3014 23.3156 52.044 23.9621C51.9449 24.2047 51.7568 24.3713 51.4796 24.4622C51.2023 24.5532 50.925 24.5987 50.6478 24.5987C50.4894 24.5987 50.3111 24.5835 50.1131 24.5532C49.915 24.5229 49.7566 24.437 49.6378 24.2955C49.5982 24.2551 49.524 24.1844 49.4151 24.0834C49.3061 23.9823 49.2022 23.8712 49.1031 23.7499C49.0041 23.6288 48.915 23.5125 48.8358 23.3964C48.7565 23.2852 48.717 23.1993 48.717 23.1387C49.0536 22.2697 49.3903 21.4009 49.7269 20.527C50.0636 19.658 50.4102 18.7486 50.7666 17.809C51.123 16.8694 51.4944 15.8691 51.8806 14.8183C52.2667 13.7625 52.6776 12.631 53.1134 11.4134C53.1529 11.2922 53.2668 11.1861 53.4549 11.0952C53.643 11.0042 53.861 10.9386 54.1085 10.8981C54.356 10.8577 54.6085 10.8274 54.866 10.8073C55.1234 10.787 55.3511 10.7769 55.5491 10.7769C55.6482 10.7769 55.772 10.787 55.9205 10.8073C56.069 10.8274 56.2126 10.8628 56.3512 10.9132C56.4899 10.9639 56.6037 11.0395 56.6928 11.1406C56.7819 11.2416 56.8265 11.373 56.8265 11.5346C56.8265 11.5953 56.8166 11.6458 56.7968 11.6862L56.5592 12.1105L56.678 11.959C57.1335 11.4538 57.6286 11.1053 58.1633 10.9132C58.698 10.7213 59.3416 10.6254 60.0941 10.6254C60.3119 10.6254 60.5793 10.6557 60.8962 10.7163C61.213 10.7769 61.52 10.8931 61.817 11.0648C62.114 11.2366 62.3666 11.4841 62.5746 11.8125C62.7824 12.1358 62.8765 12.5703 62.8567 13.1159C62.8171 13.7676 62.6487 14.5405 62.3517 15.4397C62.0547 16.344 61.7279 17.2483 61.3715 18.1627C61.0149 19.072 60.6882 19.9257 60.3912 20.729C60.0941 21.5272 59.9357 22.1536 59.9158 22.5982C59.8763 23.0022 60.005 23.2043 60.3021 23.2043C60.8962 23.2043 61.4309 23.0174 61.9062 22.6436C62.3814 22.2697 62.8221 21.8151 63.228 21.2796C63.634 20.7441 63.9955 20.1783 64.3122 19.5822C64.6291 18.9861 64.9262 18.4759 65.2035 18.0515H66.154ZM81.6603 17.9303C81.383 18.4354 81.0266 19.0669 80.5909 19.8246C80.1551 20.5825 79.6601 21.3099 79.1056 22.0071C78.5511 22.7042 77.9471 23.3054 77.2936 23.8105C76.64 24.3158 75.9568 24.5684 75.2439 24.5684C74.828 24.5684 74.4171 24.5279 74.0111 24.4471C73.6051 24.3663 73.2487 24.2097 72.9417 23.9773C72.6348 23.7449 72.3873 23.4317 72.1991 23.0377C72.011 22.6436 71.9267 22.1334 71.9466 21.5069C71.5357 22.1131 71.1495 22.6132 70.7979 23.0074C70.4415 23.4014 70.1049 23.7146 69.7781 23.947C69.4563 24.1794 69.1295 24.336 68.8077 24.4168C68.481 24.4976 68.1641 24.538 67.8472 24.538C66.8867 24.538 66.154 24.2198 65.6441 23.5833C65.1341 22.9467 64.8767 22.1536 64.8767 21.2038C64.8767 20.5168 64.9658 19.7742 65.144 18.976C65.3223 18.1778 65.5747 17.3897 65.9016 16.6117C66.2283 15.8337 66.6293 15.0811 67.1046 14.3536C67.5799 13.6261 68.1146 12.9896 68.7087 12.444C69.3028 11.8984 69.9563 11.4588 70.6693 11.1255C71.3822 10.7921 72.1347 10.6254 72.9269 10.6254C73.2041 10.6254 73.4962 10.6607 73.8031 10.7315C74.1101 10.8021 74.4715 10.979 74.8874 11.2619C75.2439 10.4738 75.6201 9.65031 76.0162 8.79151C76.4123 7.93272 76.7935 7.10925 77.1599 6.32124C77.5262 5.53311 77.858 4.82077 78.155 4.18423C78.4521 3.54768 78.6798 3.05771 78.8382 2.71419C79.0363 2.49194 79.2937 2.33022 79.6106 2.22924C79.9275 2.12814 80.2591 2.08267 80.6057 2.09281C80.9523 2.10296 81.2939 2.1686 81.6306 2.28987C81.9672 2.41102 82.2544 2.58278 82.4921 2.80514C82.096 3.89633 81.6157 5.13398 81.0513 6.51819C80.4869 7.9024 79.9176 9.32195 79.3432 10.7769C78.8482 12.0044 78.3679 13.227 77.9025 14.4344C77.4371 15.6468 77.0213 16.7735 76.6549 17.8242C76.2885 18.8699 75.9964 19.7995 75.7786 20.6026C75.5607 21.4109 75.4518 22.0374 75.4518 22.4769C75.4518 22.9619 75.5806 23.2043 75.838 23.2043C76.2142 23.2043 76.8281 22.8053 77.6797 22.0071C78.5313 21.2089 79.5413 19.8499 80.7097 17.9303H81.6603ZM68.7037 22.8709C69.1147 22.8709 69.491 22.775 69.8227 22.583C70.1594 22.391 70.4564 22.1586 70.7238 21.8859C70.9911 21.613 71.2237 21.3301 71.4317 21.0371C71.6347 20.7441 71.808 20.4865 71.9466 20.2642C72.006 19.9611 72.0802 19.6327 72.1693 19.279C72.2585 18.9255 72.3773 18.5213 72.5259 18.0667C72.6743 17.612 72.8526 17.0765 73.0606 16.4601C73.2685 15.8439 73.521 15.1214 73.818 14.2929C73.8577 14.1313 73.8874 13.9747 73.9071 13.8231C73.9269 13.6715 73.9368 13.5149 73.9368 13.3533C73.9368 13.0503 73.8626 12.7926 73.714 12.5803C73.5656 12.3682 73.2933 12.2621 72.8972 12.2621H72.6892C72.4714 12.2621 72.209 12.4389 71.9021 12.7926C71.6 13.1462 71.2733 13.6009 70.9316 14.1566C70.585 14.7122 70.2435 15.3438 69.8969 16.051C69.5553 16.7583 69.2434 17.4705 68.9711 18.1879C68.6939 18.9052 68.4711 19.5822 68.3076 20.2188C68.1393 20.8553 68.0552 21.3958 68.0552 21.8404C68.0552 22.5274 68.273 22.8709 68.7037 22.8709ZM105.514 17.9606C104.84 19.2539 104.157 20.3299 103.464 21.1887C102.771 22.0475 102.108 22.7295 101.474 23.2346C100.84 23.7399 100.251 24.0986 99.7063 24.3107C99.1618 24.5229 98.7112 24.629 98.3548 24.629C97.8596 24.629 97.4388 24.538 97.0922 24.3561C96.7457 24.1743 96.4684 23.947 96.2605 23.6742C96.0526 23.4014 95.904 23.0983 95.815 22.7648C95.7258 22.4315 95.6813 22.1131 95.6813 21.8101C95.6813 21.2645 95.7654 20.7037 95.9337 20.1278C96.102 19.5519 96.3001 18.9912 96.5278 18.4456C96.7556 17.9 96.9982 17.3847 97.2557 16.8997C97.5131 16.4148 97.7309 15.9853 97.9092 15.6115C98.0873 15.2376 98.2013 14.9244 98.2508 14.6719C98.3002 14.4192 98.2359 14.2626 98.0576 14.202L95.6813 12.9593C94.9881 14.4748 94.2504 15.9348 93.4682 17.3392C92.686 18.7436 91.8542 19.9814 90.9729 21.0523C90.0917 22.1233 89.1559 22.9771 88.1657 23.6136C87.1756 24.2501 86.126 24.5684 85.017 24.5684C84.2447 24.5684 83.5713 24.4269 82.997 24.144C82.4227 23.8611 81.9474 23.4822 81.5711 23.0074C81.1949 22.5324 80.9127 21.9818 80.7246 21.3554C80.5365 20.729 80.4423 20.0722 80.4423 19.3852C80.4423 17.9909 80.6949 16.7481 81.1998 15.657C81.7048 14.5658 82.3336 13.6412 83.0862 12.8835C83.8387 12.1257 84.6506 11.5498 85.522 11.1558C86.3933 10.7618 87.1954 10.5647 87.9282 10.5647C88.2054 10.5647 88.547 10.6455 88.953 10.8073C89.359 10.9689 89.75 11.2063 90.1264 11.5195C90.5027 11.8327 90.8245 12.2217 91.0918 12.6865C91.3592 13.1512 91.4927 13.6968 91.4927 14.3232C91.4927 15.0709 91.3592 15.7176 91.0918 16.2632C90.8245 16.8088 90.4779 17.2533 90.0521 17.5968C89.6263 17.9403 89.1559 18.198 88.6411 18.3698C88.1262 18.5415 87.631 18.6275 87.1558 18.6275C86.5616 18.6275 86.0171 18.5465 85.522 18.3849C85.0269 18.2233 84.6606 18.0212 84.4229 17.7787C84.2051 18.3647 84.0467 18.9002 83.9476 19.3852C83.8486 19.8701 83.799 20.3046 83.799 20.6886C83.799 21.517 83.9822 22.1081 84.3486 22.4618C84.715 22.8153 85.1358 22.9922 85.6111 22.9922C86.2052 22.9922 86.8241 22.8659 87.4677 22.6132C88.1113 22.3607 88.8044 21.8606 89.5471 21.1129C90.2898 20.3652 91.0967 19.3145 91.9681 17.9606C92.8395 16.6067 93.8 14.8183 94.8495 12.5955C94.3148 12.3733 93.8841 12.0601 93.5574 11.6559C93.2305 11.2518 93.1167 10.7769 93.2157 10.2313C93.3147 9.76656 93.5375 9.35728 93.8841 9.00373C94.2307 8.65007 94.7208 8.47329 95.3545 8.47329C95.6713 8.47329 95.9288 8.55912 96.1268 8.73088C96.3249 8.90263 96.4586 9.11988 96.5278 9.38259C96.5972 9.64529 96.6219 9.93832 96.6021 10.2615C96.5823 10.5849 96.5329 10.8981 96.4536 11.2013C96.8299 11.3629 97.2011 11.4791 97.5675 11.5498C97.9339 11.6206 98.4637 11.7872 99.1567 12.0499C99.4538 12.151 99.7509 12.252 100.048 12.3531C100.345 12.4541 100.617 12.5753 100.865 12.7168C101.112 12.8582 101.31 13.03 101.459 13.232C101.607 13.4341 101.682 13.6867 101.682 13.9899C101.682 14.3737 101.583 14.8537 101.385 15.4296C101.187 16.0055 100.954 16.6219 100.687 17.2786C100.419 17.9353 100.137 18.592 99.84 19.2487C99.543 19.9056 99.3004 20.5016 99.1123 21.0371C98.9241 21.5727 98.8201 22.0071 98.8003 22.3405C98.7805 22.6739 98.8994 22.8406 99.1567 22.8406C99.4341 22.8406 99.7757 22.7497 100.182 22.5679C100.588 22.386 101.028 22.098 101.503 21.704C101.979 21.31 102.479 20.8047 103.004 20.1885C103.528 19.5721 104.048 18.8295 104.563 17.9606H105.514ZM88.5223 11.8075C88.0668 11.8075 87.641 11.9994 87.2449 12.3834C86.8488 12.7673 86.4874 13.232 86.1606 13.7776C85.8339 14.3232 85.5468 14.879 85.2992 15.4447C85.0516 16.0106 84.8586 16.4753 84.72 16.8391C84.7794 16.8997 84.8586 16.9604 84.9576 17.0209C85.1161 17.122 85.3536 17.1725 85.6705 17.1725C85.9874 17.1725 86.3785 17.0209 86.8439 16.7178C87.3092 16.4148 87.7994 15.7883 88.3143 14.8385C88.8292 13.9091 89.0867 13.1512 89.0867 12.5652C89.0867 12.0601 88.8985 11.8075 88.5223 11.8075ZM95.3248 10.8981C95.3842 10.7769 95.4238 10.6102 95.4436 10.398C95.4635 10.1859 95.4584 9.99383 95.4287 9.82207C95.399 9.65031 95.3396 9.51901 95.2506 9.42806C95.1614 9.33711 95.0377 9.35227 94.8792 9.47353C94.701 9.61498 94.592 9.76655 94.5525 9.92817C94.5128 10.0898 94.5228 10.2414 94.5822 10.3828C94.6416 10.5243 94.7406 10.6455 94.8792 10.7466C95.0178 10.8476 95.1664 10.8981 95.3248 10.8981ZM104.92 10.6557H107.326C107.88 9.1805 108.484 7.92771 109.138 6.89704C109.791 5.86649 110.465 5.04303 111.158 4.42677C111.851 3.8104 112.549 3.37091 113.252 3.1082C113.955 2.84549 114.614 2.7395 115.228 2.78999C115.841 2.84048 116.396 3.02238 116.891 3.33558C117.386 3.64878 117.792 4.06809 118.109 4.59351C118.267 4.85611 118.342 5.17443 118.332 5.54827C118.322 5.9221 118.277 6.2858 118.198 6.63946C118.119 6.99312 118.03 7.29115 117.931 7.53358C117.832 7.77611 117.772 7.89738 117.752 7.89738C117.733 7.89738 117.569 7.9024 117.262 7.91254C116.955 7.92257 116.614 7.9277 116.237 7.9277C115.802 7.94788 115.307 7.95801 114.752 7.95801C115.109 7.31133 115.396 6.71525 115.614 6.16966C115.792 5.70487 115.901 5.26539 115.94 4.85109C115.98 4.43691 115.841 4.17921 115.525 4.07823C115.228 3.99731 114.921 4.08325 114.604 4.33582C114.287 4.58838 113.975 4.9319 113.668 5.36637C113.361 5.80084 113.069 6.29092 112.792 6.83651C112.514 7.3821 112.262 7.91254 112.034 8.42782C111.806 8.94309 111.613 9.40788 111.455 9.82207C111.296 10.2364 111.188 10.5142 111.128 10.6557H117.426L117.396 11.5346H112.197V11.5953H111.544C111.94 13.1108 112.153 14.6516 112.183 16.2177C112.212 17.7837 112.099 19.2892 111.841 20.734C111.584 22.1789 111.212 23.5378 110.727 24.8109C110.242 26.0839 109.682 27.1902 109.049 28.1299C108.415 29.0695 107.722 29.8122 106.969 30.3578C106.217 30.9034 105.454 31.1761 104.682 31.1761C104.088 31.1761 103.622 30.9539 103.286 30.5092C102.949 30.0647 102.717 29.499 102.588 28.8118C102.459 28.1248 102.41 27.357 102.439 26.5083C102.469 25.6595 102.553 24.8209 102.692 23.9924C102.731 23.6894 102.84 23.2448 103.019 22.6587C103.197 22.0728 103.41 21.4059 103.657 20.6583C103.905 19.9106 104.172 19.1124 104.459 18.2637C104.746 17.415 105.043 16.5865 105.35 15.7782C105.657 14.9699 105.944 14.202 106.212 13.4746C106.479 12.7471 106.722 12.1207 106.94 11.5953H104.92V10.6557ZM110.445 11.8378C110.445 11.8175 110.346 12.0651 110.148 12.5803C109.95 13.0956 109.697 13.7726 109.39 14.6113C109.083 15.4499 108.737 16.4096 108.351 17.4908C107.965 18.5718 107.578 19.6782 107.192 20.8098C106.806 21.9414 106.445 23.0477 106.108 24.1289C105.771 25.2099 105.494 26.1798 105.276 27.0387C105.058 27.8975 104.93 28.5846 104.89 29.0998C104.85 29.6151 104.93 29.8728 105.128 29.8728C105.979 29.8728 106.742 29.499 107.415 28.7513C108.088 28.0036 108.668 27.0488 109.153 25.8869C109.638 24.725 110.034 23.4367 110.341 22.0223C110.648 20.6078 110.856 19.2337 110.965 17.9C111.074 16.5662 111.084 15.3538 110.994 14.2626C110.905 13.1714 110.722 12.3631 110.445 11.8378ZM131.862 17.9C130.971 19.4559 130.174 20.6784 129.471 21.5675C128.768 22.4566 128.144 23.1235 127.6 23.5681C127.055 24.0126 126.575 24.2905 126.159 24.4016C125.743 24.5127 125.377 24.5684 125.06 24.5684C124.426 24.5684 123.857 24.3764 123.352 23.9924C122.847 23.6085 122.525 23.0528 122.386 22.3254C122.228 22.5881 122.025 22.8558 121.777 23.1286C121.53 23.4014 121.268 23.6489 120.99 23.8712C120.713 24.0935 120.436 24.2753 120.158 24.4168C119.881 24.5582 119.644 24.629 119.446 24.629C118.297 24.629 117.47 24.3461 116.965 23.7802C116.46 23.2145 116.163 22.4971 116.074 21.6282C115.985 20.7592 116.059 19.7995 116.297 18.7486C116.534 17.6979 116.817 16.6825 117.143 15.7024C117.47 14.7224 117.802 13.8333 118.139 13.0351C118.475 12.2368 118.703 11.666 118.822 11.3225C118.881 11.1406 119 11.0042 119.178 10.9132C119.356 10.8223 119.564 10.7567 119.802 10.7163C120.04 10.6758 120.292 10.6557 120.56 10.6557C120.827 10.6557 121.079 10.6557 121.317 10.6557C121.515 10.696 121.738 10.7718 121.985 10.8829C122.233 10.9942 122.357 11.1608 122.357 11.3831C122.357 11.464 122.347 11.5246 122.327 11.5649C122.149 12.0499 121.921 12.6663 121.644 13.414C121.367 14.1616 121.084 14.9496 120.797 15.7782C120.51 16.6067 120.238 17.4453 119.98 18.294C119.723 19.1427 119.53 19.9004 119.401 20.5673C119.272 21.2342 119.223 21.7798 119.253 22.2041C119.282 22.6284 119.436 22.8406 119.713 22.8406C120.228 22.8406 120.713 22.6082 121.169 22.1434C121.624 21.6787 122.079 21.0523 122.535 20.2642C122.891 18.6678 123.312 17.1018 123.797 15.566C124.283 14.0302 124.921 12.5652 125.713 11.1709C125.852 11.0295 126.011 10.9284 126.189 10.8678L126.486 10.7769C126.684 10.7365 126.941 10.7163 127.258 10.7163C127.714 10.7163 128.105 10.7566 128.431 10.8375C128.758 10.9184 128.922 11.1205 128.922 11.4437C128.922 11.5043 128.912 11.5549 128.892 11.5953C128.872 11.6357 128.842 11.6862 128.803 11.7469C128.545 12.4137 128.258 13.1664 127.941 14.005C127.625 14.8436 127.313 15.6873 127.006 16.5359C126.699 17.3847 126.421 18.2132 126.174 19.0215C125.926 19.8298 125.743 20.5421 125.624 21.1584C125.506 21.7747 125.476 22.2799 125.535 22.6739C125.595 23.068 125.783 23.2649 126.1 23.2649C126.694 23.2649 127.362 22.78 128.105 21.8101C128.847 20.8402 129.783 19.5367 130.912 17.9H131.862ZM128.833 11.7469C128.813 11.7872 128.803 11.8075 128.803 11.8075V11.7772L128.833 11.7469ZM130.348 18.7789C130.664 17.3241 131.125 15.7631 131.729 14.096C132.333 12.4289 132.976 10.7769 133.66 9.14005C134.343 7.50327 135.036 5.9474 135.739 4.47224C136.442 2.99708 137.061 1.71395 137.596 0.622767C137.794 0.400407 138.051 0.238793 138.368 0.13781C138.685 0.0367178 139.017 -0.00875483 139.363 0.00138712C139.71 0.01142 140.051 0.0771744 140.388 0.198333C140.725 0.3196 141.012 0.491359 141.249 0.713609C140.715 2.00698 140.096 3.4467 139.393 5.03299C138.69 6.61928 137.987 8.24592 137.284 9.91302C136.581 11.5801 135.917 13.2321 135.293 14.8688C134.67 16.5056 134.17 18.0009 133.793 19.3548C133.734 19.759 133.675 20.1531 133.615 20.537C133.556 20.921 133.506 21.315 133.467 21.7191C133.467 21.9414 133.491 22.1586 133.541 22.3708C133.59 22.583 133.635 22.689 133.675 22.689C133.853 22.8911 134.061 22.9922 134.298 22.9922C134.595 22.9922 134.917 22.8608 135.264 22.5982C135.61 22.3355 135.957 22.0071 136.303 21.613C136.65 21.219 136.987 20.7997 137.313 20.3552C137.64 19.9106 137.927 19.5014 138.175 19.1276C138.422 18.7537 138.62 18.4506 138.769 18.2182C138.917 17.9858 138.992 17.9 138.992 17.9606H139.942C139.962 17.9808 139.749 18.3344 139.304 19.0215C138.858 19.7085 138.269 20.5471 137.536 21.5372C137.299 21.8807 137.036 22.2294 136.749 22.583C136.462 22.9366 136.15 23.2549 135.813 23.5378C135.477 23.8207 135.115 24.0581 134.729 24.2501C134.343 24.4421 133.932 24.538 133.496 24.538C133.001 24.538 132.531 24.4774 132.085 24.3561C131.64 24.235 131.253 24.0481 130.927 23.7954C130.6 23.5428 130.342 23.2296 130.154 22.8558C129.966 22.4819 129.882 22.0425 129.902 21.5372C129.922 21.0927 129.971 20.6381 130.05 20.1733C130.13 19.7085 130.229 19.2437 130.348 18.7789Z" fill="black"/>
<path d="M31.2057 53.6366C30.0769 53.7983 28.9827 54.0408 27.9233 54.364C26.8637 54.6874 25.8735 54.9399 24.9527 55.1218C24.0318 55.3038 23.1803 55.3239 22.398 55.1825C21.6157 55.041 20.9474 54.5864 20.3929 53.8184C20.9474 54.0205 21.6554 54.0508 22.5168 53.9094C23.3783 53.7679 24.3091 53.5406 25.3091 53.2274C26.3092 52.9142 27.344 52.5555 28.4134 52.1513C29.4828 51.7472 30.5175 51.3785 31.5176 51.045C32.5177 50.7116 33.4385 50.4539 34.2802 50.2721C35.1218 50.0902 35.81 50.0701 36.3447 50.2115C36.8794 50.3529 37.2309 50.6913 37.3992 51.2269C37.5675 51.7624 37.4735 52.5858 37.1171 53.6972L35.2159 53.3032C35.1169 53.6871 34.9139 54.2428 34.6069 54.9703C34.2999 55.6978 33.9237 56.4858 33.4781 57.3345C33.0325 58.1832 32.5375 59.0521 31.9928 59.9412C31.4483 60.8303 30.8937 61.6387 30.3293 62.3661C29.7649 63.0936 29.2154 63.6796 28.6807 64.1242C28.146 64.5687 27.6608 64.791 27.2251 64.791C27.0271 64.791 26.7944 64.7456 26.527 64.6546C26.2598 64.5637 26.1161 64.3969 26.0963 64.1545L29.0075 59.8503C28.3935 60.497 27.745 61.1234 27.0617 61.7296C26.3785 62.3358 25.6557 62.8814 24.8932 63.3664C24.1308 63.8513 23.3288 64.2403 22.4871 64.5334C21.6454 64.8264 20.7494 64.9728 19.7987 64.9728C18.8085 64.9728 17.9026 64.8668 17.0807 64.6546C16.2588 64.4424 15.5558 64.0837 14.9716 63.5786C14.3875 63.0734 13.932 62.4015 13.6052 61.5629C13.2784 60.7243 13.1151 59.6785 13.1151 58.4257C13.1151 56.5464 13.3626 54.7177 13.8577 52.9395C14.3528 51.1613 15.041 49.489 15.9222 47.923C16.8035 46.3569 17.8431 44.9222 19.0413 43.6188C20.2394 42.3155 21.5365 41.194 22.9327 40.2543C24.3288 39.3147 25.7943 38.5822 27.3291 38.0568C28.8639 37.5314 30.4036 37.2687 31.9483 37.2687C33.6317 37.2687 35.0278 37.4758 36.1368 37.8901C37.2457 38.3043 38.137 38.8196 38.8103 39.436C39.4836 40.0522 39.9638 40.7292 40.2509 41.4667C40.5381 42.2044 40.6916 42.8964 40.7114 43.5431C40.751 44.4929 40.6371 45.3011 40.3698 45.9679C40.1024 46.6348 39.741 47.1702 39.2855 47.5744C38.83 47.9785 38.3151 48.2463 37.7409 48.3777C37.1665 48.509 36.6021 48.504 36.0477 48.3625C36.5032 47.0894 36.7804 45.9831 36.8794 45.0435C36.9784 44.1039 36.9536 43.2956 36.8051 42.6186C36.6566 41.9417 36.3992 41.3809 36.0328 40.9363C35.6664 40.4918 35.2555 40.1432 34.8 39.8906C34.3445 39.638 33.8593 39.4611 33.3445 39.3602C32.8296 39.2592 32.3443 39.2086 31.8888 39.2086C30.6611 39.2086 29.4036 39.5572 28.1163 40.2543C26.8291 40.9515 25.5814 41.876 24.3734 43.0177C23.1654 44.1594 22.0317 45.4628 20.9721 46.9328C19.9127 48.3978 18.9917 49.8932 18.2095 51.4088C17.4273 52.9243 16.8183 54.4196 16.3827 55.8847C15.947 57.3497 15.7539 58.6581 15.8034 59.7998C15.8529 60.9416 16.1747 61.866 16.7688 62.5632C17.363 63.2603 18.3036 63.6089 19.5909 63.6089C20.0265 63.6089 20.6454 63.4068 21.4474 63.0027C22.2495 62.5985 23.1654 61.9822 24.1951 61.1537C25.225 60.3252 26.3439 59.2845 27.5519 58.0317C28.7599 56.7788 29.9778 55.3138 31.2057 53.6366ZM51.5835 53.576C51.2865 54.2832 50.8756 55.0208 50.3508 55.7887C49.826 56.5565 49.2517 57.2638 48.6279 57.9104C48.0041 58.557 47.3654 59.0926 46.7118 59.5169C46.0583 59.9412 45.4544 60.1535 44.8998 60.1535C44.6622 60.1535 44.3404 60.1333 43.9344 60.0928C43.5285 60.0524 43.1324 59.9261 42.7462 59.714C42.36 59.5018 42.0283 59.1632 41.751 58.6986C41.4738 58.2338 41.3352 57.5771 41.3352 56.7283C41.3352 55.1522 41.5827 53.5406 42.0779 51.8938C42.5729 50.2468 43.1967 48.5646 43.9492 46.847C43.969 46.8267 44.0632 46.8015 44.2315 46.7712C44.3998 46.7409 44.578 46.7106 44.7662 46.6803C44.9543 46.6499 45.1375 46.6246 45.3157 46.6045C45.4939 46.5843 45.6028 46.564 45.6425 46.5438C45.7811 46.5035 45.9099 46.468 46.0286 46.4377C46.1474 46.4074 46.2861 46.3922 46.4446 46.3922C46.5237 46.3922 46.6327 46.4024 46.7713 46.4226C46.9099 46.4428 47.0485 46.4782 47.1871 46.5287C47.3257 46.5792 47.4446 46.6499 47.5437 46.7409C47.6426 46.8318 47.6921 46.9581 47.6921 47.1197C47.6921 47.1804 47.6823 47.236 47.6624 47.2865C47.6426 47.337 47.6129 47.3926 47.5734 47.4532L47.6031 47.3926C46.9693 48.8273 46.4544 50.1509 46.0583 51.3633C45.6622 52.5757 45.2959 53.8184 44.9592 55.0915C44.7216 56.0413 44.6028 56.7586 44.6028 57.2436C44.6028 57.7488 44.6919 58.1024 44.8701 58.3045C45.0483 58.5065 45.2959 58.6076 45.6127 58.6076C45.9494 58.6076 46.3653 58.4359 46.8604 58.0923C47.3554 57.7488 47.8506 57.3244 48.3456 56.8193C48.8408 56.314 49.2962 55.7684 49.7121 55.1825C50.128 54.5964 50.4349 54.061 50.633 53.576H51.5835ZM46.3851 42.361C46.5237 42.1184 46.7168 41.9517 46.9644 41.8609C47.2119 41.7699 47.4644 41.7244 47.7218 41.7244C47.8407 41.7244 48.0139 41.7345 48.2417 41.7548C48.4694 41.7749 48.6972 41.8154 48.9249 41.876C49.1527 41.9365 49.3507 42.0175 49.519 42.1184C49.6873 42.2195 49.7716 42.3407 49.7716 42.4821C49.7716 42.5631 49.7616 42.6135 49.7419 42.6337C49.5834 42.8964 49.4349 43.1693 49.2962 43.4522C49.1576 43.735 48.9943 43.9978 48.8061 44.2402C48.618 44.4827 48.4002 44.6798 48.1526 44.8313C47.905 44.9828 47.6031 45.0586 47.2465 45.0586C47.1476 45.0586 46.9941 45.0435 46.7861 45.0132C46.5781 44.9828 46.3653 44.9374 46.1474 44.8767C45.9296 44.8161 45.7365 44.7403 45.5682 44.6495C45.3999 44.5585 45.3157 44.4423 45.3157 44.3008C45.3157 44.1998 45.3603 44.0634 45.4493 43.8917C45.5385 43.7199 45.6425 43.538 45.7613 43.3461C45.8801 43.1541 45.9989 42.9722 46.1177 42.8005C46.2366 42.6287 46.3257 42.4821 46.3851 42.361ZM67.4165 53.5457C67.1393 54.1923 66.7283 54.8945 66.1838 55.6523C65.6392 56.4101 65.0302 57.1223 64.3569 57.7892C63.6836 58.456 62.9805 59.0218 62.2478 59.4866C61.5151 59.9514 60.8418 60.1939 60.2279 60.2141C59.198 60.2141 58.4752 59.9211 58.0594 59.335C57.6434 58.7491 57.4356 57.9711 57.4356 57.0012V56.6677C57.3365 56.9102 57.1434 57.2234 56.8563 57.6073C56.5691 57.9912 56.2325 58.3701 55.8463 58.7439C55.4601 59.1178 55.0343 59.4411 54.569 59.714C54.1035 59.9867 53.6333 60.1231 53.1579 60.1231C52.6826 60.1231 52.2717 59.9918 51.9252 59.7291C51.5786 59.4664 51.2865 59.1229 51.0488 58.6986C50.8112 58.2741 50.633 57.7993 50.5141 57.2739C50.3953 56.7485 50.336 56.2332 50.336 55.7281C50.336 54.9804 50.425 54.2126 50.6033 53.4244C50.7815 52.6363 51.0241 51.8735 51.3311 51.136C51.638 50.3984 51.9895 49.7114 52.3856 49.0748C52.7817 48.4383 53.1876 47.8977 53.6036 47.4532C54.2175 46.8065 54.8858 46.3266 55.6086 46.0134C56.3314 45.7002 57.0295 45.5436 57.7029 45.5436C58.396 45.5436 59.0049 45.7153 59.5298 46.0589C60.0545 46.4024 60.3763 46.8975 60.4952 47.5441C60.6338 47.3218 60.7873 47.1147 60.9556 46.9228C61.1239 46.7307 61.4854 46.6348 62.0398 46.6348C62.3369 46.6348 62.6934 46.7359 63.1092 46.9378C63.5252 47.1399 63.9113 47.5845 64.2677 48.2716C63.9311 48.7717 63.6439 49.2769 63.4063 49.7821C63.1885 50.1862 62.8963 50.7368 62.53 51.4441C62.1636 52.1463 61.7923 52.8839 61.416 53.6518C61.0398 54.4146 60.718 55.1673 60.4506 55.8998C60.1833 56.6374 60.0496 57.2486 60.0496 57.7285C60.0496 58.0721 60.1239 58.3146 60.2723 58.456C60.4209 58.5975 60.6041 58.6683 60.8219 58.6683C61.0992 58.6683 61.4259 58.557 61.8023 58.3348C62.1785 58.1125 62.5647 57.8347 62.9608 57.5013C63.3568 57.1678 63.7479 56.794 64.134 56.3798C64.5203 55.9655 64.8767 55.5715 65.2035 55.1976C65.5303 54.8238 65.8075 54.4853 66.0352 54.1822C66.263 53.8791 66.4065 53.667 66.466 53.5457H67.4165ZM53.9006 58.4864C54.3164 58.4864 54.7472 58.2741 55.1928 57.8498C55.6383 57.4305 56.0542 56.9354 56.4403 56.3696C56.8266 55.8039 57.1582 55.2481 57.4356 54.6924C57.7128 54.1368 57.9009 53.7326 58 53.4699C58.1584 52.7829 58.3613 52.111 58.6089 51.4593C58.8565 50.8026 59.1288 50.166 59.4258 49.5396C59.0891 49.5396 58.9208 49.388 58.9208 49.0849C58.9208 48.9233 58.9505 48.7515 59.0099 48.5696C59.0694 48.3928 59.0991 48.2211 59.0991 48.0593C59.0991 47.9179 59.0643 47.8018 58.9951 47.7108C58.9257 47.6199 58.7822 47.5744 58.5644 47.5744C58.2475 47.5744 57.9058 47.7664 57.5394 48.1503C57.1731 48.5293 56.7969 49.0242 56.4106 49.6305C56.0245 50.2367 55.6532 50.9137 55.2968 51.6714C54.9402 52.4242 54.6284 53.1769 54.361 53.9195C54.0937 54.6672 53.8758 55.3744 53.7074 56.0363C53.5391 56.703 53.455 57.2486 53.455 57.6679C53.455 58.2135 53.6036 58.4864 53.9006 58.4864ZM64.2975 48.2109C64.2975 48.2312 64.2925 48.2412 64.2826 48.2412C64.2728 48.2412 64.2677 48.2514 64.2677 48.2716C64.2677 48.2514 64.2777 48.2312 64.2975 48.2109ZM81.7345 53.6063C81.18 54.839 80.576 55.9402 79.9224 56.9102C79.6452 57.3144 79.3334 57.7134 78.9868 58.1075C78.6402 58.5015 78.2689 58.8501 77.8728 59.1532C77.4767 59.4563 77.0609 59.7038 76.6251 59.8958C76.1895 60.0878 75.734 60.1838 75.2588 60.1838C74.823 60.1838 74.422 60.1333 74.0557 60.0322C73.6893 59.9312 73.3724 59.7746 73.1051 59.5624C72.8377 59.3502 72.6298 59.0774 72.4813 58.7439C72.3327 58.4106 72.2783 58.0114 72.3179 57.5468C72.3575 56.7991 72.5208 55.9756 72.808 55.0764C73.0952 54.1771 73.4121 53.3032 73.7587 52.4545C74.1051 51.6057 74.422 50.8177 74.7092 50.0902C74.9964 49.3627 75.1498 48.7768 75.1696 48.3322C75.2093 47.8068 75.0013 47.5441 74.5458 47.5441C74.0705 47.5441 73.625 47.6755 73.2091 47.9382C72.7931 48.2009 72.4119 48.5343 72.0654 48.9384C71.7188 49.3426 71.4119 49.7922 71.1445 50.2873C70.8772 50.7823 70.6544 51.2724 70.4762 51.7573C70.1791 52.5656 69.9118 53.3032 69.6741 53.97C69.4364 54.6369 69.2137 55.2734 69.0057 55.8797C68.7978 56.4858 68.5799 57.082 68.3522 57.6679C68.1244 58.254 67.8819 58.8703 67.6245 59.5169C67.5254 59.7594 67.3373 59.9261 67.0601 60.017C66.7828 60.108 66.5055 60.1535 66.2283 60.1535C66.0699 60.1535 65.8916 60.1383 65.6936 60.108C65.4955 60.0777 65.3371 59.9918 65.2183 59.8503C65.1787 59.8099 65.1045 59.7392 64.9956 59.6382C64.8866 59.5371 64.7827 59.426 64.6836 59.3047C64.5846 59.1835 64.4955 59.0673 64.4163 58.9511C64.337 58.84 64.2975 58.7541 64.2975 58.6934C64.6341 57.8245 64.9708 56.9557 65.3074 56.0817C65.6441 55.2128 65.9907 54.3034 66.3471 53.3638C66.7035 52.4242 67.0749 51.4239 67.4611 50.3731C67.8472 49.3173 68.2581 48.1857 68.6939 46.9682C68.7334 46.847 68.8473 46.7409 69.0354 46.6499C69.2235 46.559 69.4414 46.4933 69.689 46.4529C69.9365 46.4125 70.189 46.3822 70.4465 46.362C70.7038 46.3417 70.9316 46.3317 71.1296 46.3317C71.2287 46.3317 71.3525 46.3417 71.501 46.362C71.6495 46.3822 71.7931 46.4175 71.9317 46.468C72.0704 46.5186 72.1842 46.5943 72.2733 46.6954C72.3624 46.7964 72.407 46.9278 72.407 47.0894C72.407 47.1501 72.3971 47.2005 72.3773 47.241L72.1397 47.6653L72.2584 47.5137C72.714 47.0086 73.2091 46.6601 73.7438 46.468C74.2785 46.2761 74.9221 46.1801 75.6746 46.1801C75.8924 46.1801 76.1598 46.2104 76.4767 46.2711C76.7935 46.3317 77.1005 46.4479 77.3975 46.6196C77.6945 46.7914 77.9471 47.0389 78.1551 47.3673C78.3629 47.6906 78.457 48.1251 78.4372 48.6707C78.3976 49.3224 78.2292 50.0953 77.9322 50.9945C77.6352 51.8988 77.3084 52.803 76.952 53.7175C76.5954 54.6267 76.2687 55.4805 75.9717 56.2838C75.6746 57.082 75.5162 57.7084 75.4963 58.153C75.4568 58.557 75.5855 58.7591 75.8826 58.7591C76.4767 58.7591 77.0114 58.5722 77.4867 58.1983C77.9619 57.8245 78.4026 57.3699 78.8085 56.8344C79.2145 56.2989 79.576 55.7331 79.8927 55.137C80.2096 54.5409 80.5067 54.0307 80.784 53.6063H81.7345ZM86.6953 46.5741C86.2795 47.7058 85.8785 48.797 85.4922 49.8477C85.1061 50.8985 84.7694 51.8786 84.4823 52.7879C84.1951 53.6972 83.9624 54.5258 83.7842 55.2734C83.606 56.0211 83.5169 56.6374 83.5169 57.1223C83.5169 57.5871 83.5714 57.9609 83.6803 58.2438C83.7892 58.5268 83.9624 58.6683 84.2001 58.6683C84.2991 58.6683 84.4576 58.6328 84.6754 58.5621C84.8932 58.4914 85.1606 58.3247 85.4774 58.062C85.7943 57.7993 86.1606 57.4103 86.5765 56.8951C86.9924 56.3798 87.4578 55.6826 87.9727 54.8035C88.4876 53.9245 89.0421 52.8283 89.6362 51.5148C90.2303 50.2014 90.864 48.6151 91.5373 46.7561C91.5572 46.4327 91.7601 46.2053 92.1463 46.074C92.5325 45.9427 92.9483 45.8871 93.3939 45.9073C93.8395 45.9276 94.2504 46.0084 94.6267 46.1498C95.0029 46.2913 95.1911 46.463 95.1911 46.6651C94.399 48.9283 93.7206 50.8581 93.1562 52.4545C92.5918 54.0508 92.1116 55.3794 91.7155 56.4404C91.3195 57.5013 90.9977 58.3449 90.7502 58.9713C90.5026 59.5977 90.3095 60.0726 90.1709 60.396C90.7056 60.2544 91.3392 59.9767 92.072 59.5624C92.8047 59.1481 93.5573 58.6683 94.3296 58.1227C95.102 57.5771 95.8447 57.0062 96.5575 56.4101C97.2705 55.8139 97.8745 55.2532 98.3696 54.7278H99.4093L99.3795 54.7582C98.7062 55.7281 98.0081 56.5616 97.2853 57.2587C96.5625 57.9559 95.7951 58.5823 94.9831 59.1381C94.1712 59.6937 93.3048 60.2191 92.3839 60.7142C91.4631 61.2093 90.4679 61.7397 89.3985 62.3055C88.7648 63.8817 88.1212 65.1952 87.4677 66.2459C86.8142 67.2968 86.1458 68.1353 85.4625 68.7618C84.7794 69.3882 84.0713 69.8327 83.3436 70.0954C82.6158 70.3581 81.8682 70.4895 81.1058 70.4895C80.1601 70.4895 79.3828 70.3076 78.7789 69.9439C78.1748 69.5801 77.7787 69.1053 77.5906 68.5193C77.4024 67.9332 77.4272 67.2816 77.6649 66.5643C77.9025 65.8468 78.3729 65.1346 79.0759 64.4273C79.7789 63.72 80.7146 63.0633 81.8831 62.4571C83.0514 61.8509 84.4971 61.3659 86.22 61.0021C86.3784 60.6586 86.5319 60.2444 86.6805 59.7594C86.829 59.2745 86.9627 58.8602 87.0815 58.5167C86.5468 59.1633 86.0814 59.5877 85.6853 59.7898C85.2893 59.9918 84.9229 60.0928 84.5863 60.0928C84.0318 60.0928 83.4921 60.0222 82.9722 59.8806C82.4524 59.7392 82.0068 59.4563 81.6355 59.032C81.5564 58.9511 81.4424 58.8147 81.2939 58.6228C81.1454 58.4307 81.0068 58.1782 80.8681 57.865C80.7295 57.5518 80.6057 57.1678 80.5017 56.7132C80.3928 56.2585 80.3384 55.7179 80.3384 55.0915C80.3384 54.1418 80.5117 52.9647 80.8532 51.5603C81.1949 50.1559 81.8286 48.4635 82.7495 46.4832C82.8682 46.2408 83.1307 46.069 83.5366 45.9679C83.9377 45.8669 84.3634 45.8215 84.8091 45.8315C85.2546 45.8416 85.6656 45.9124 86.0418 46.0437C86.4181 46.1751 86.6359 46.3519 86.6953 46.5741ZM85.923 62.3358C85.923 62.3358 85.7943 62.3763 85.5368 62.4571C85.2793 62.5379 84.9477 62.644 84.5417 62.7753C84.1358 62.9067 83.6852 63.0835 83.1901 63.3057C82.695 63.5281 82.2148 63.7857 81.7494 64.0787C81.284 64.3717 80.8532 64.7101 80.4573 65.0941C80.0612 65.4781 79.7641 65.9024 79.566 66.3672C79.3284 66.9531 79.2888 67.519 79.4472 68.0646C79.6057 68.6102 79.8829 68.9992 80.279 69.2316C80.6751 69.464 81.1404 69.474 81.6751 69.2619C82.2098 69.0497 82.7346 68.4586 83.2495 67.4887C83.7446 66.5591 84.1654 65.7711 84.512 65.1244C84.8586 64.4778 85.1358 63.9474 85.3438 63.5331C85.5517 63.1188 85.7002 62.8208 85.7893 62.639C85.8785 62.4571 85.923 62.356 85.923 62.3358ZM126.946 53.5154C126.273 54.8086 125.59 55.8847 124.897 56.7435C124.203 57.6023 123.54 58.2843 122.906 58.7894C122.273 59.2947 121.683 59.6533 121.139 59.8654C120.594 60.0777 120.144 60.1838 119.787 60.1838C119.292 60.1838 118.871 60.0928 118.525 59.9109C118.178 59.7291 117.901 59.5018 117.693 59.229C117.485 58.9562 117.337 58.6531 117.247 58.3196C117.158 57.9862 117.114 57.6679 117.114 57.3649C117.114 56.8193 117.198 56.2585 117.366 55.6826C117.535 55.1067 117.733 54.5459 117.96 54.0003C118.188 53.4547 118.431 52.9395 118.688 52.4545C118.946 51.9695 119.163 51.5401 119.342 51.1663C119.52 50.7924 119.634 50.4792 119.683 50.2267C119.733 49.974 119.668 49.8174 119.49 49.7568L117.114 48.5141C116.401 50.0094 115.688 51.4542 114.975 52.8485C114.262 54.2428 113.534 55.4805 112.792 56.5616C112.049 57.6427 111.282 58.5065 110.489 59.1532C109.697 59.7998 108.875 60.1231 108.024 60.1231C106.994 60.1231 106.271 59.8301 105.855 59.2442C105.439 58.6581 105.232 57.8801 105.232 56.9102V56.5767C105.132 56.8193 104.939 57.1325 104.652 57.5164C104.365 57.9003 104.028 58.2793 103.642 58.6531C103.256 59.0269 102.83 59.3502 102.365 59.623C101.9 59.8958 101.429 60.0322 100.954 60.0322C100.479 60.0322 100.068 59.9009 99.7212 59.6382C99.3746 59.3755 99.0825 59.0319 98.8448 58.6076C98.6073 58.1832 98.429 57.7084 98.3101 57.183C98.1913 56.6576 98.132 56.1423 98.132 55.6371C98.132 54.8895 98.221 54.1216 98.3993 53.3335C98.5776 52.5454 98.8202 51.7826 99.1271 51.045C99.434 50.3075 99.7856 49.6204 100.182 48.9839C100.578 48.3473 100.984 47.8068 101.4 47.3623C102.013 46.7156 102.682 46.2356 103.405 45.9224C104.127 45.6092 104.826 45.4526 105.499 45.4526C106.192 45.4526 106.801 45.6244 107.326 45.9679C107.851 46.3114 108.172 46.8065 108.291 47.4532C108.43 47.2309 108.583 47.0238 108.752 46.8318C108.92 46.6398 109.281 46.5438 109.836 46.5438C110.133 46.5438 110.489 46.6449 110.905 46.847C111.321 47.0491 111.707 47.4936 112.064 48.1806C111.727 48.6859 111.44 49.191 111.202 49.6962C110.985 50.1004 110.692 50.656 110.326 51.3633C109.96 52.0705 109.588 52.8081 109.212 53.576C108.836 54.3439 108.514 55.0965 108.247 55.8342C107.979 56.5717 107.846 57.183 107.846 57.6679C107.846 58.0114 107.92 58.254 108.068 58.3954C108.217 58.5368 108.4 58.6076 108.618 58.6076C108.915 58.6076 109.311 58.4207 109.806 58.0469C110.301 57.673 110.881 57.0718 111.544 56.2434C112.207 55.4149 112.94 54.3388 113.742 53.0153C114.544 51.6917 115.391 50.0701 116.282 48.1503C115.747 47.928 115.317 47.6148 114.99 47.2107C114.663 46.8065 114.549 46.3317 114.648 45.7861C114.747 45.3213 114.97 44.9121 115.316 44.5585C115.663 44.2049 116.153 44.0281 116.787 44.0281C117.104 44.0281 117.361 44.1139 117.559 44.2857C117.757 44.4574 117.891 44.6747 117.96 44.9374C118.03 45.2001 118.054 45.4931 118.035 45.8163C118.015 46.1397 117.965 46.4529 117.886 46.7561C118.262 46.9177 118.634 47.0339 119 47.1046C119.366 47.1754 119.896 47.342 120.589 47.6047C120.886 47.7058 121.183 47.8068 121.48 47.9079C121.778 48.0088 122.05 48.1301 122.297 48.2716C122.545 48.413 122.743 48.5848 122.891 48.7868C123.04 48.9889 123.114 49.2415 123.114 49.5447C123.114 49.9285 123.015 50.4085 122.817 50.9844C122.619 51.5603 122.386 52.1766 122.119 52.8334C121.852 53.4901 121.57 54.1468 121.272 54.8035C120.975 55.4603 120.733 56.0564 120.545 56.5919C120.356 57.1274 120.253 57.5619 120.233 57.8953C120.213 58.2287 120.332 58.3954 120.589 58.3954C120.867 58.3954 121.208 58.3045 121.614 58.1227C122.02 57.9408 122.461 57.6527 122.936 57.2587C123.411 56.8647 123.911 56.3595 124.436 55.7432C124.961 55.1269 125.481 54.3843 125.996 53.5154H126.946ZM101.697 58.4257C102.112 58.4257 102.543 58.2135 102.989 57.7892C103.434 57.3649 103.85 56.8697 104.236 56.304C104.623 55.7381 104.954 55.1774 105.232 54.6217C105.509 54.066 105.697 53.6568 105.796 53.3941C105.954 52.7071 106.157 52.0352 106.405 51.3785C106.652 50.7217 106.925 50.0801 107.222 49.4537C106.885 49.4537 106.717 49.3021 106.717 48.9991C106.717 48.8373 106.747 48.6656 106.806 48.4838C106.865 48.3019 106.895 48.1301 106.895 47.9685C106.895 47.8271 106.86 47.7108 106.791 47.6199C106.722 47.5289 106.578 47.4835 106.36 47.4835C106.044 47.4835 105.702 47.6755 105.335 48.0593C104.969 48.4433 104.593 48.9384 104.207 49.5447C103.821 50.1509 103.449 50.8329 103.093 51.5906C102.736 52.3484 102.424 53.1011 102.157 53.8488C101.89 54.5964 101.672 55.3037 101.503 55.9705C101.335 56.6374 101.251 57.1829 101.251 57.6073C101.251 58.153 101.4 58.4257 101.697 58.4257ZM116.757 46.4529C116.817 46.3317 116.856 46.165 116.876 45.9528C116.896 45.7407 116.891 45.5486 116.861 45.3768C116.832 45.2051 116.772 45.0738 116.683 44.9828C116.594 44.8919 116.47 44.907 116.312 45.0283C116.133 45.1698 116.025 45.3213 115.985 45.483C115.945 45.6446 115.955 45.7962 116.015 45.9376C116.074 46.079 116.173 46.2003 116.312 46.3014C116.45 46.4024 116.599 46.4529 116.757 46.4529ZM112.093 48.12C112.093 48.1403 112.089 48.1503 112.079 48.1503C112.069 48.1503 112.064 48.1604 112.064 48.1806C112.064 48.1604 112.074 48.1403 112.093 48.12Z" fill="black"/>
</svg>
