<svg width="81" height="81" viewBox="0 0 81 81" fill="none" xmlns="http://www.w3.org/2000/svg">
<path d="M40.3299 79.0794C47.2887 79.0794 52.9299 61.6194 52.9299 40.0814C52.9299 18.5434 47.2887 1.08337 40.3299 1.08337C33.3712 1.08337 27.73 18.5434 27.73 40.0814C27.73 61.6194 33.3712 79.0794 40.3299 79.0794Z" stroke="black" stroke-width="2" stroke-miterlimit="5.75877"/>
<path d="M1.32518 40.0785C1.32518 47.0372 18.7897 52.6784 40.3334 52.6784C61.877 52.6784 79.3416 47.0372 79.3416 40.0785C79.3416 33.1197 61.877 27.4785 40.3334 27.4785C18.7897 27.4785 1.32518 33.1197 1.32518 40.0785Z" stroke="black" stroke-width="2" stroke-miterlimit="5.75877"/>
<path fill-rule="evenodd" clip-rule="evenodd" d="M40.33 16.3661L43.6835 36.6693L64.0452 40.0814L43.7421 43.4284L40.33 63.7901L36.983 43.487L16.6212 40.0814L36.9244 36.7279L40.33 16.3661Z" fill="black"/>
</svg>
